<?xml version="1.0"?>
<svg width="24" height="24" xmlns="http://www.w3.org/2000/svg" xmlns:svg="http://www.w3.org/2000/svg" clip-rule="evenodd" fill-rule="evenodd" stroke-linejoin="round" xml:space="preserve">
 <g class="layer">
  <title>Layer 1</title>
  <path d="m10,4l-6,0c-1.11,0 -2,0.89 -2,2l0,12c0,1.1 0.9,2 2,2l16,0c1.1,0 2,-0.9 2,-2l0,-10a2,2 0 0 0 -2,-2l-8,0l-2,-2z" fill="#b3e5fc" fill-rule="nonzero" id="svg_1" transform="matrix(1 0 0 1 0 0)"/>
  <g id="svg_198" transform="matrix(0.0537073 0 0 0.0536292 11.0918 9.38754)">
   <path d="m60.09,13.16c9.03,-4.87 18.58,-9.17 28.69,-11.15c3.53,14.15 7.14,28.28 10.61,42.45c-0.5,-0.05 -1.5,-0.14 -2,-0.18c-0.64,-0.99 -1.27,-1.98 -1.91,-2.96c-0.43,1.01 -0.87,2.02 -1.3,3.03c-4.3,0.97 -8.73,0.28 -13.08,0.73c-0.65,-0.55 -1.3,-1.09 -1.95,-1.65c-0.48,1.19 -0.97,2.37 -1.45,3.56c-3.36,-5.27 -6.09,-10.93 -9.61,-16.09c-8.6,4.61 -15.73,11.43 -22.58,18.26c-0.94,-1.27 -1.86,-2.56 -2.79,-3.83c-3.83,-0.21 -7.66,-0.45 -11.49,-0.67c-3.18,-0.49 -5.67,1.99 -8.65,2.57c9.45,-14.2 22.8,-25.57 37.51,-34.07z" fill="#eb7216" id="svg_200" opacity="1"/>
  </g>
  <g id="svg_197" transform="matrix(0.0537073 0 0 0.0536292 11.0918 9.38754)">
   <path d="m144.64,2.08c3.21,0.2 6.23,1.38 9.26,2.34c17.94,6.07 34.41,16.56 47.31,30.45c-0.42,0.38 -1.26,1.14 -1.67,1.52c-5,-1.28 -10.26,-2 -15.39,-1.15c-0.98,0.45 -1.77,1.19 -2.64,1.8c-0.54,-0.14 -1.08,-0.28 -1.62,-0.43c-0.34,1.17 -0.67,2.33 -1.01,3.49c-4.39,-3.24 -8.53,-7.01 -13.59,-9.19c-3.82,6.01 -6.99,12.41 -10.83,18.41c-0.63,-1.25 -1.25,-2.5 -1.88,-3.75c-4.51,0.84 -8.92,-1.05 -13.45,-0.66c-0.58,-0.78 -1.15,-1.55 -1.73,-2.33c-1.25,1.19 -2.5,2.37 -3.66,3.64c3.44,-14.76 7.47,-29.38 10.9,-44.14z" fill="#ec7316" id="svg_201" opacity="1"/>
  </g>
  <g id="svg_196" transform="matrix(0.0537073 0 0 0.0536292 11.0918 9.38754)">
   <path d="m45.51,49.16c6.85,-6.83 13.98,-13.65 22.58,-18.26c3.52,5.16 6.25,10.82 9.61,16.09c2.5,4.05 4.8,8.22 7.06,12.41c-2.29,0.13 -3.87,-1.61 -5.48,-2.95c-0.32,1.57 -0.62,3.15 -0.93,4.72c-1.37,-0.94 -2.52,-2.77 -4.41,-2.4c-8.01,0.7 -16.09,-0.46 -24.05,0.94c-2.11,0.17 -4.44,0.84 -6.44,-0.16c-1.19,-1.37 -2.01,-3 -2.92,-4.55c1.63,-1.97 3.28,-3.93 4.98,-5.84z" fill="#f2951e" id="svg_202" opacity="1"/>
  </g>
  <g id="svg_195" transform="matrix(0.0537073 0 0 0.0536292 11.0918 9.38754)">
   <path d="m165.29,30.91c5.06,2.18 9.2,5.95 13.59,9.19c6.82,5.83 12.59,12.75 17.79,20.03c-1.42,0.9 -2.8,2.13 -4.62,1.94c-8.22,0.06 -16.47,0.2 -24.65,-0.71c-3.05,-0.47 -5.78,1.02 -8.51,2.06c-0.9,-0.57 -1.7,-1.27 -2.53,-1.93c-0.15,0.46 -0.44,1.38 -0.59,1.84c-1.26,-0.63 -2.49,-1.33 -3.83,-1.74c-1.22,0.74 -2.31,1.67 -3.44,2.55c0.13,-1.76 0.23,-3.52 0.41,-5.27c1.83,-3.19 3.64,-6.4 5.55,-9.55c3.84,-6 7.01,-12.4 10.83,-18.41z" fill="#f1941e" id="svg_203" opacity="1"/>
  </g>
  <g id="svg_194" transform="matrix(0.0537073 0 0 0.0536292 11.0918 9.38754)">
   <path d="m181.51,37.04c0.87,-0.61 1.66,-1.35 2.64,-1.8c5.13,-0.85 10.39,-0.13 15.39,1.15c0.41,-0.38 1.25,-1.14 1.67,-1.52c11.82,12.63 21.1,27.91 25.92,44.58c-1.31,-1.51 -2.58,-3.05 -3.79,-4.64c-4.68,1.59 -9.67,1.08 -14.51,0.82c-0.36,2.2 -0.74,4.4 -1.01,6.62c-3.17,-7.62 -6.1,-15.5 -11.15,-22.12c-5.2,-7.28 -10.97,-14.2 -17.79,-20.03c0.34,-1.16 0.67,-2.32 1.01,-3.49c0.54,0.15 1.08,0.29 1.62,0.43z" fill="#e96a15" id="svg_204" opacity="1"/>
  </g>
  <g id="svg_193" transform="matrix(0.0537073 0 0 0.0536292 11.0918 9.38754)">
   <path d="m95.48,41.32c0.64,0.98 1.27,1.97 1.91,2.96c0.5,0.04 1.5,0.13 2,0.18c2.69,10.82 5.62,21.6 8.03,32.49c-3.39,0.87 -6.6,2.26 -9.73,3.81c-4.88,-6.76 -8.17,-14.51 -12.93,-21.36c-2.26,-4.19 -4.56,-8.36 -7.06,-12.41c0.48,-1.19 0.97,-2.37 1.45,-3.56c0.65,0.56 1.3,1.1 1.95,1.65c4.35,-0.45 8.78,0.24 13.08,-0.73c0.43,-1.01 0.87,-2.02 1.3,-3.03z" fill="#e86814" id="svg_205" opacity="1"/>
   <path d="m133.74,46.22c1.16,-1.27 2.41,-2.45 3.66,-3.64c0.58,0.78 1.15,1.55 1.73,2.33c4.53,-0.39 8.94,1.5 13.45,0.66c0.63,1.25 1.25,2.5 1.88,3.75c-1.91,3.15 -3.72,6.36 -5.55,9.55c-4.45,7.25 -8.46,14.76 -12.81,22.06c-3.14,-1.81 -6.5,-3.22 -10.03,-4.05c2.44,-10.25 5,-20.47 7.67,-30.66z" fill="#e86814" id="svg_206" opacity="1"/>
  </g>
  <g id="svg_192" transform="matrix(0.0537073 0 0 0.0536292 11.0918 9.38754)">
   <path d="m22.58,47.23c2.98,-0.58 5.47,-3.06 8.65,-2.57c3.83,0.22 7.66,0.46 11.49,0.67c0.93,1.27 1.85,2.56 2.79,3.83c-1.7,1.91 -3.35,3.87 -4.98,5.84c-8.07,10.29 -13.69,22.42 -17.04,35.03c-3.02,10.51 -2.43,21.5 -2.7,32.3c-1.49,-5.99 -0.84,-12.19 -0.89,-18.29c-0.52,0.88 -1.05,1.77 -1.57,2.65c-5.36,0.83 -11.16,-1.08 -16.16,1.57c-0.16,-0.59 -0.47,-1.76 -0.63,-2.35c1.19,-20.95 8.64,-41.48 20.76,-58.59l0.28,-0.09z" fill="#e76413" id="svg_207" opacity="1"/>
  </g>
  <g id="svg_191" transform="matrix(0.0537073 0 0 0.0536292 11.0918 9.38754)">
   <path d="m23.49,90.03c3.35,-12.61 8.97,-24.74 17.04,-35.03c0.91,1.55 1.73,3.18 2.92,4.55c2,1 4.33,0.33 6.44,0.16c7.96,-1.4 16.04,-0.24 24.05,-0.94c1.89,-0.37 3.04,1.46 4.41,2.4c0.31,-1.57 0.61,-3.15 0.93,-4.72c1.61,1.34 3.19,3.08 5.48,2.95c4.76,6.85 8.05,14.6 12.93,21.36l0.09,0.12c-2.83,1.67 -5.53,3.57 -7.87,5.89c-7.59,-6.14 -13.4,-14.14 -20.79,-20.45c-5.67,5.83 -9.92,12.84 -13.61,20.04c-2.1,0.84 -3.03,3.05 -4.62,4.51c-5.93,0.67 -11.91,-0.02 -17.86,0.29c-3.26,0.24 -6.29,-1.37 -9.54,-1.13z" fill="#ee8c1c" id="svg_208" opacity="1"/>
  </g>
  <g id="svg_190" transform="matrix(0.0537073 0 0 0.0536292 11.0918 9.38754)">
   <path d="m136.1,80.93c4.35,-7.3 8.36,-14.81 12.81,-22.06c-0.18,1.75 -0.28,3.51 -0.41,5.27c1.13,-0.88 2.22,-1.81 3.44,-2.55c1.34,0.41 2.57,1.11 3.83,1.74c0.15,-0.46 0.44,-1.38 0.59,-1.84c0.83,0.66 1.63,1.36 2.53,1.93c2.73,-1.04 5.46,-2.53 8.51,-2.06c8.18,0.91 16.43,0.77 24.65,0.71c1.82,0.19 3.2,-1.04 4.62,-1.94c5.05,6.62 7.98,14.5 11.15,22.12c2.31,6.61 3.77,13.47 4.61,20.42c-0.26,2.1 -0.59,4.2 -0.92,6.3c-0.33,-1.25 -0.66,-2.5 -0.98,-3.75c-8.01,-0.52 -16.05,-0.37 -24.05,0.17c-0.7,-1.48 -1.39,-2.96 -2.1,-4.43c-0.16,0.8 -0.48,2.41 -0.65,3.21c-0.4,-1.69 -0.87,-3.36 -1.3,-5.03c-3.05,-12.18 -8.79,-24.19 -18.25,-32.66c-6.13,5.44 -11.11,12.02 -17.06,17.63c-1.09,1.02 -2.42,1.7 -3.69,2.43c-2.2,-2.18 -4.74,-3.94 -7.33,-5.61z" fill="#ed8a1a" id="svg_209" opacity="1"/>
  </g>
  <g id="svg_189" transform="matrix(0.0537073 0 0 0.0536292 11.0918 9.38754)">
   <path d="m55.51,86.36c3.69,-7.2 7.94,-14.21 13.61,-20.04c7.39,6.31 13.2,14.31 20.79,20.45c-5.04,4.96 -8.54,11.28 -10.45,18.06c-1.02,-0.24 -2.03,-0.48 -3.03,-0.71c0.15,1.16 0.31,2.33 0.47,3.5c-1.33,-1.35 -2.72,-3.02 -4.85,-2.73c-6.91,-0.84 -13.7,1.19 -20.59,0.92c-0.3,-1.34 -0.58,-2.68 -0.85,-4.02c1.11,-5.29 2.66,-10.51 4.9,-15.43z" fill="#f4ae26" id="svg_210" opacity="1"/>
  </g>
  <g id="svg_188" transform="matrix(0.0537073 0 0 0.0536292 11.0918 9.38754)">
   <path d="m147.12,84.11c5.95,-5.61 10.93,-12.19 17.06,-17.63c9.46,8.47 15.2,20.48 18.25,32.66c-0.72,0.99 -1.74,1.61 -2.85,2.07c0.06,-1.21 0.14,-2.41 0.22,-3.62c-8.14,0.83 -16.32,0.33 -24.48,0.2c-1.18,-0.01 -2.04,1.02 -3.04,1.48c-2.27,-4.67 -5.06,-9.14 -8.85,-12.73c1.27,-0.73 2.6,-1.41 3.69,-2.43z" fill="#f5b026" id="svg_211" opacity="1"/>
  </g>
  <g id="svg_187" transform="matrix(0.0537073 0 0 0.0536292 11.0918 9.38754)">
   <path d="m223.34,74.81c1.21,1.59 2.48,3.13 3.79,4.64c4.37,13.04 5.99,27.04 5.34,40.78c-0.26,0.03 -0.79,0.1 -1.05,0.13c-0.19,-0.43 -0.57,-1.28 -0.75,-1.71c-1.24,0.74 -2.44,1.86 -4,1.62c-4.14,-0.34 -8.56,0.35 -12.4,-1.56c-0.41,1.55 -0.82,3.1 -1.19,4.65c-0.35,-6.9 0.68,-13.86 -0.65,-20.69c-0.84,-6.95 -2.3,-13.81 -4.61,-20.42c0.27,-2.22 0.65,-4.42 1.01,-6.62c4.84,0.26 9.83,0.77 14.51,-0.82z" fill="#e45d12" id="svg_212" opacity="1"/>
  </g>
  <g id="svg_186" transform="matrix(0.0537073 0 0 0.0536292 11.0918 9.38754)">
   <path d="m50.89,90.87c1.59,-1.46 2.52,-3.67 4.62,-4.51c-2.24,4.92 -3.79,10.14 -4.9,15.43c-1.46,6.39 -1.06,13 -0.81,19.5c0.41,7.81 3.41,15.15 6.46,22.25c-1.25,-0.18 -2.49,-0.36 -3.74,-0.53c0.06,1.23 0.11,2.46 0.17,3.7c-0.69,-0.84 -1.38,-1.68 -2.07,-2.51c-5.52,-0.66 -11.08,-0.16 -16.62,-0.37c-2.78,-0.13 -5.55,0.24 -8.23,1c-0.81,-2.58 -1.7,-5.13 -2.63,-7.67c-0.68,-4.96 -1.45,-9.91 -2.35,-14.83c0.27,-10.8 -0.32,-21.79 2.7,-32.3c3.25,-0.24 6.28,1.37 9.54,1.13c5.95,-0.31 11.93,0.38 17.86,-0.29z" fill="#e87b18" id="svg_213" opacity="1"/>
  </g>
  <g id="svg_185" transform="matrix(0.0537073 0 0 0.0536292 11.0918 9.38754)">
   <path d="m152.28,99.27c1,-0.46 1.86,-1.49 3.04,-1.48c8.16,0.13 16.34,0.63 24.48,-0.2c-0.08,1.21 -0.16,2.41 -0.22,3.62c1.11,-0.46 2.13,-1.08 2.85,-2.07c0.43,1.67 0.9,3.34 1.3,5.03c1.16,8.65 0.53,17.47 -1.49,25.94c-0.96,-1.18 -1.74,-2.93 -3.54,-2.84c-6.56,-0.63 -13.18,-0.31 -19.76,-0.3c-2.8,-0.25 -5.05,1.55 -7.01,3.29c4.19,-9.79 4.5,-21.13 0.35,-30.99z" fill="#f0a025" id="svg_214" opacity="1"/>
  </g>
  <g id="svg_184" transform="matrix(0.0537073 0 0 0.0536292 11.0918 9.38754)">
   <path d="m184.38,100.96c0.71,1.47 1.4,2.95 2.1,4.43c8,-0.54 16.04,-0.69 24.05,-0.17c0.32,1.25 0.65,2.5 0.98,3.75c0.33,-2.1 0.66,-4.2 0.92,-6.3c1.33,6.83 0.3,13.79 0.65,20.69c-1.86,10.44 -3.95,20.96 -8.78,30.5c-8.65,-2.12 -17.67,-0.46 -26.47,-0.84c-1.07,-0.25 -2.08,-0.7 -3.1,-1.08c-1.08,1.07 -1.99,2.3 -2.7,3.65c-0.6,0.04 -1.8,0.12 -2.4,0.16c5.88,-7.55 10.5,-16.26 12.61,-25.64c2.02,-8.47 2.65,-17.29 1.49,-25.94c0.17,-0.8 0.49,-2.41 0.65,-3.21z" fill="#e77618" id="svg_215" opacity="1"/>
  </g>
  <g id="svg_183" transform="matrix(0.0537073 0 0 0.0536292 11.0918 9.38754)">
   <path d="m49.8,121.29c-0.25,-6.5 -0.65,-13.11 0.81,-19.5c0.27,1.34 0.55,2.68 0.85,4.02c6.89,0.27 13.68,-1.76 20.59,-0.92c2.13,-0.29 3.52,1.38 4.85,2.73c-0.16,-1.17 -0.32,-2.34 -0.47,-3.5c1,0.23 2.01,0.47 3.03,0.71c-1.55,5.89 -1.43,12.1 -0.23,18.04c-9.71,-2.01 -19.76,0.52 -29.43,-1.58z" fill="#f0a026" id="svg_216" opacity="1"/>
  </g>
  <g id="svg_182" transform="matrix(0.0537073 0 0 0.0536292 11.0918 9.38754)">
   <path d="m18.33,106.69c0.52,-0.88 1.05,-1.77 1.57,-2.65c0.05,6.1 -0.6,12.3 0.89,18.29c0.9,4.92 1.67,9.87 2.35,14.83c-0.69,-1.2 -1.4,-2.4 -2.13,-3.58c-4.13,2.48 -9.79,-0.07 -13.1,4.04c-0.9,-1.44 -1.81,-2.88 -2.72,-4.32c-0.49,0.43 -1.45,1.28 -1.93,1.71l-0.1,0.09c-1.78,-9.61 -2.39,-19.45 -1.62,-29.19c0.16,0.59 0.47,1.76 0.63,2.35c5,-2.65 10.8,-0.74 16.16,-1.57z" fill="#e25512" id="svg_217" opacity="1"/>
  </g>
  <g id="svg_181" transform="matrix(0.0537073 0 0 0.0536292 11.0918 9.38754)">
   <path d="m115.61,114.59c1,-1.34 2.08,0.29 2.85,0.96c8.51,8.64 17.36,16.97 25.69,25.8c6.45,7.18 13.46,13.83 20.19,20.75c-7.59,8.31 -18.01,13.34 -28.7,16.34c-0.11,0.44 -0.34,1.33 -0.46,1.77c-6.17,-6.05 -11.89,-12.54 -18.25,-18.4c-6.3,5.26 -11.54,11.64 -17.52,17.24c-5.84,-1.55 -11.4,-3.99 -16.79,-6.7c-4.79,-2.3 -8.43,-6.29 -12.99,-8.96c0.02,-0.83 0.05,-1.66 0.08,-2.48c6.43,-6.63 13.6,-12.58 19.49,-19.69c8.49,-9.16 17.6,-17.76 26.41,-26.63z" fill="#ee8d3c" id="svg_218" opacity="1"/>
  </g>
  <g id="svg_180" transform="matrix(0.0537073 0 0 0.0536292 11.0918 9.38754)">
   <path d="m214.27,118.71c3.84,1.91 8.26,1.22 12.4,1.56c1.56,0.24 2.76,-0.88 4,-1.62c0.18,0.43 0.56,1.28 0.75,1.71c0.26,-0.03 0.79,-0.1 1.05,-0.13c-1.1,15.44 -4.96,30.73 -11.82,44.64c-0.91,-0.94 -1.77,-1.95 -2.81,-2.75c-4.87,-0.55 -9.8,-0.24 -14.68,-0.03c-0.6,1.15 -1.15,2.32 -1.74,3.48c-0.45,-0.93 -0.91,-1.84 -1.36,-2.76c1.51,-2.94 2.89,-5.94 4.24,-8.95c4.83,-9.54 6.92,-20.06 8.78,-30.5c0.37,-1.55 0.78,-3.1 1.19,-4.65z" fill="#df4f13" id="svg_219" opacity="1"/>
  </g>
  <g id="svg_179" transform="matrix(0.0537073 0 0 0.0536292 11.0918 9.38754)">
   <path d="m49.8,121.29c9.67,2.1 19.72,-0.43 29.43,1.58c1.61,6.89 5.21,13.16 9.97,18.35c-5.89,7.11 -13.06,13.06 -19.49,19.69l-0.55,0.55c-5.22,-5.23 -9.9,-11.11 -12.9,-17.92c-3.05,-7.1 -6.05,-14.44 -6.46,-22.25z" fill="#eb9024" id="svg_220" opacity="1"/>
  </g>
  <g id="svg_178" transform="matrix(0.0537073 0 0 0.0536292 11.0918 9.38754)">
   <path d="m151.93,130.26c1.96,-1.74 4.21,-3.54 7.01,-3.29c6.58,-0.01 13.2,-0.33 19.76,0.3c1.8,-0.09 2.58,1.66 3.54,2.84c-2.11,9.38 -6.73,18.09 -12.61,25.64c-1.64,2.04 -3.32,4.05 -5.01,6.04l-0.28,0.31c-6.73,-6.92 -13.74,-13.57 -20.19,-20.75c3.2,-3.25 5.64,-7.1 7.78,-11.09z" fill="#eb8e24" id="svg_221" opacity="1"/>
  </g>
  <g id="svg_177" transform="matrix(0.0537073 0 0 0.0536292 11.0918 9.38754)">
   <path d="m5.19,133.3c0.91,1.44 1.82,2.88 2.72,4.32c3.31,-4.11 8.97,-1.56 13.1,-4.04c0.73,1.18 1.44,2.38 2.13,3.58c0.93,2.54 1.82,5.09 2.63,7.67c1.23,4.02 2.92,7.88 4.56,11.75c-1.1,1.48 -2.06,3.12 -3.48,4.32c-2.76,0.3 -5.54,-0.04 -8.3,-0.17c-1.57,1.78 -3.27,3.43 -5.09,4.95c-4.77,-9.69 -8.49,-19.99 -10.2,-30.67c0.48,-0.43 1.44,-1.28 1.93,-1.71z" fill="#de4c13" id="svg_222" opacity="1"/>
  </g>
  <g id="svg_176" transform="matrix(0.0537073 0 0 0.0536292 11.0918 9.38754)">
   <path d="m52.52,143.01c1.25,0.17 2.49,0.35 3.74,0.53c3,6.81 7.68,12.69 12.9,17.92c-6.72,7.08 -13.83,13.8 -20.43,20.99l-0.25,0.23c-1.9,-4.51 -6.06,-7.35 -8.88,-11.21c-3.53,-4.66 -6.69,-9.64 -9.27,-14.89c-1.64,-3.87 -3.33,-7.73 -4.56,-11.75c2.68,-0.76 5.45,-1.13 8.23,-1c5.54,0.21 11.1,-0.29 16.62,0.37c0.69,0.83 1.38,1.67 2.07,2.51c-0.06,-1.24 -0.11,-2.47 -0.17,-3.7z" fill="#e46b18" id="svg_223" opacity="1"/>
  </g>
  <g id="svg_175" transform="matrix(0.0537073 0 0 0.0536292 11.0918 9.38754)">
   <path d="m172.03,155.59c0.71,-1.35 1.62,-2.58 2.7,-3.65c1.02,0.38 2.03,0.83 3.1,1.08c8.8,0.38 17.82,-1.28 26.47,0.84c-1.35,3.01 -2.73,6.01 -4.24,8.95c-4.4,6.99 -9.77,13.29 -15.35,19.37l-0.32,-0.31c-6.67,-6.61 -13.35,-13.22 -19.77,-20.08c1.69,-1.99 3.37,-4 5.01,-6.04c0.6,-0.04 1.8,-0.12 2.4,-0.16z" fill="#e36918" id="svg_224" opacity="1"/>
  </g>
  <g id="svg_174" transform="matrix(0.0537073 0 0 0.0536292 11.0918 9.38754)">
   <path d="m26.85,160.9c1.42,-1.2 2.38,-2.84 3.48,-4.32c2.58,5.25 5.74,10.23 9.27,14.89c2.82,3.86 6.98,6.7 8.88,11.21c-4.68,4.01 -8.85,8.55 -13.11,12.99c-8.99,-8.61 -16.22,-18.95 -21.91,-29.99c1.82,-1.52 3.52,-3.17 5.09,-4.95c2.76,0.13 5.54,0.47 8.3,0.17z" fill="#dd4213" id="svg_225" opacity="1"/>
   <path d="m203.16,162.09c4.88,-0.21 9.81,-0.52 14.68,0.03c1.04,0.8 1.9,1.81 2.81,2.75c-5.68,11.34 -13.14,21.78 -22.11,30.75c-4.99,-4.07 -9.09,-9.1 -13.83,-13.44c5.58,-6.08 10.95,-12.38 15.35,-19.37c0.45,0.92 0.91,1.83 1.36,2.76c0.59,-1.16 1.14,-2.33 1.74,-3.48z" fill="#dd4213" id="svg_226" opacity="1"/>
  </g>
  <g id="svg_173" transform="matrix(0.0537073 0 0 0.0536292 11.0918 9.38754)">
   <path d="m69.16,161.46l0.55,-0.55c-0.03,0.82 -0.06,1.65 -0.08,2.48c4.56,2.67 8.2,6.66 12.99,8.96c5.39,2.71 10.95,5.15 16.79,6.7l-1.08,1.07c-7.2,6.8 -13.84,14.17 -21.04,20.98c-0.2,0.18 -0.61,0.56 -0.81,0.75c-3.79,-3.26 -8.73,-4.62 -12.7,-7.61c-5.11,-3.8 -10.44,-7.37 -15.05,-11.79c6.6,-7.19 13.71,-13.91 20.43,-20.99z" fill="#eb7f36" id="svg_227" opacity="1"/>
   <path d="m164.34,162.1l0.28,-0.31c6.42,6.86 13.1,13.47 19.77,20.08c-3.66,4.54 -8.33,8.08 -13.14,11.31c-4.63,3.04 -9.33,6.06 -14.56,7.95l-0.42,0.18c-6.85,-7.2 -13.75,-14.4 -21.09,-21.1c0.12,-0.44 0.35,-1.33 0.46,-1.77c10.69,-3 21.11,-8.03 28.7,-16.34z" fill="#eb7f36" id="svg_228" opacity="1"/>
  </g>
  <g id="svg_172" transform="matrix(0.0537073 0 0 0.0536292 11.0918 9.38754)">
   <path d="m99.41,179.05c5.98,-5.6 11.22,-11.98 17.52,-17.24c6.36,5.86 12.08,12.35 18.25,18.4c-12.23,1.3 -24.63,1.33 -36.85,-0.09l1.08,-1.07z" fill="#f7bf2f" id="svg_229" opacity="1"/>
  </g>
  <g id="svg_171" transform="matrix(0.0537073 0 0 0.0536292 11.0918 9.38754)">
   <path d="m77.29,201.1c7.2,-6.81 13.84,-14.18 21.04,-20.98c12.22,1.42 24.62,1.39 36.85,0.09c7.34,6.7 14.24,13.9 21.09,21.1c-4.76,2.29 -9.96,3.8 -15.26,3.96c-15.34,-0.03 -30.68,-0.08 -46.02,0.02c-4.16,-0.01 -8.12,-1.46 -12.22,-1.95c-2.01,-0.22 -3.75,-1.28 -5.48,-2.24z" fill="#f5ad2f" id="svg_230" opacity="1"/>
  </g>
  <g id="svg_170" transform="matrix(0.0537073 0 0 0.0536292 11.0918 9.38754)">
   <path d="m184.39,181.87l0.32,0.31c4.74,4.34 8.84,9.37 13.83,13.44c-7.93,7.88 -17.04,14.51 -26.78,19.99c-1.94,-1.18 -3.76,-2.55 -5.22,-4.28c-3.14,-3.54 -6.74,-6.63 -9.85,-10.2c5.23,-1.89 9.93,-4.91 14.56,-7.95c4.81,-3.23 9.48,-6.77 13.14,-11.31z" fill="#e86e35" id="svg_231" opacity="1"/>
  </g>
  <g id="svg_169" transform="matrix(0.0537073 0 0 0.0536292 11.0918 9.38754)">
   <path d="m35.37,195.67c4.26,-4.44 8.43,-8.98 13.11,-12.99l0.25,-0.23c4.61,4.42 9.94,7.99 15.05,11.79c3.97,2.99 8.91,4.35 12.7,7.61c-4.82,4.54 -9.13,9.61 -14.21,13.88c-9.94,-5.27 -18.96,-12.11 -27.05,-19.9l0.15,-0.16z" fill="#e96e35" id="svg_232" opacity="1"/>
  </g>
  <g id="svg_168" transform="matrix(0.0537073 0 0 0.0536292 11.0918 9.38754)">
   <path d="m76.48,201.85c0.2,-0.19 0.61,-0.57 0.81,-0.75c1.73,0.96 3.47,2.02 5.48,2.24c4.1,0.49 8.06,1.94 12.22,1.95c15.34,-0.1 30.68,-0.05 46.02,-0.02c5.3,-0.16 10.5,-1.67 15.26,-3.96l0.42,-0.18c3.11,3.57 6.71,6.66 9.85,10.2c1.46,1.73 3.28,3.1 5.22,4.28c-16.8,8.78 -35.71,14.07 -54.76,13.39c-19.01,0.65 -37.99,-4.39 -54.73,-13.27c5.08,-4.27 9.39,-9.34 14.21,-13.88z" fill="#f1952e" id="svg_233" opacity="1"/>
  </g>
 </g>

</svg>