<?xml version="1.0"?>
<svg width="23.999999999999996" height="23.999999999999996" xmlns="http://www.w3.org/2000/svg" xmlns:svg="http://www.w3.org/2000/svg" clip-rule="evenodd" fill-rule="evenodd" stroke-linejoin="round" xml:space="preserve">
 <g class="layer">
  <title>Layer 1</title>
  <path d="M19 20H4a2 2 0 0 1-2-2V6c0-1.11.89-2 2-2h6l2 2h7c1.097 0 2 .903 2 2H4v10l2.14-8h17.07l-2.28 8.5c-.23.87-1.01 1.5-1.93 1.5z" style="fill-rule:nonzero;fill:#ffccbc"/>
  <path d="m17.44,20.65l3.1,-0.86l0.42,-4.67l-5.51,0l-0.14,-1.55l5.78,0l0.15,-1.52l-7.61,0l0.43,4.6l5.24,0l-0.18,1.97l-1.69,0.46l-1.69,-0.46l-0.11,-1.27l-1.52,0l0.22,2.44l3.1,0.86m-6.03,-11.14l12.07,0l-1.09,12.4l-4.95,1.38l-4.95,-1.38l-1.09,-12.4z" fill="#e44d26" id="svg_6" transform="matrix(1 0 0 1 0 0)"/>
 </g>

</svg>