<?xml version="1.0"?>
<svg width="23.999999999999996" height="23.999999999999996" xmlns="http://www.w3.org/2000/svg" xmlns:svg="http://www.w3.org/2000/svg" clip-rule="evenodd" fill-rule="evenodd" stroke-linejoin="round" xml:space="preserve">
 <g class="layer">
  <title>Layer 1</title>
  <path d="m10,4l-6,0c-1.11,0 -2,0.89 -2,2l0,12c0,1.1 0.9,2 2,2l16,0c1.1,0 2,-0.9 2,-2l0,-10a2,2 0 0 0 -2,-2l-8,0l-2,-2z" fill="#1e88e5" fill-rule="nonzero" id="svg_1"/>
  <path d="m17.5,9.15l-5.4,0l0,5.17l5.4,0l0,-5.17zm6.18,0l-5.4,0l0,5.17l5.4,0l0,-5.17zm-6.18,5.9l-5.4,0l0,5.6l5.4,0l0,-5.6zm6.18,0l-5.4,0l0,5.6l5.4,0l0,-5.6z" fill="#bbdefb" id="svg_2" transform="matrix(1 0 0 1 0 0)"/>
 </g>

</svg>