<?xml version="1.0"?>
<svg width="24" height="24" xmlns="http://www.w3.org/2000/svg" xmlns:svg="http://www.w3.org/2000/svg" clip-rule="evenodd" stroke-linejoin="round" xml:space="preserve">
 <g class="layer">
  <title>Layer 1</title>
  <path d="M19 20H4a2 2 0 0 1-2-2V6c0-1.11.89-2 2-2h6l2 2h7c1.097 0 2 .903 2 2H4v10l2.14-8h17.07l-2.28 8.5c-.23.87-1.01 1.5-1.93 1.5z" fill="#00897b"/>
  <g id="svg_2">
   <path d="m16.98,20.72a4.18,4.71 0 0 1 -4.18,-4.71c0,-3.14 4.18,-8.44 4.18,-8.44s4.18,5.3 4.18,8.44a4.18,4.71 0 0 1 -4.18,4.71z" fill="#29b6f6" id="svg_6" stroke-width="1.15"/>
  </g>
 </g>

</svg>