<?xml version="1.0"?>
<svg width="24" height="24" xmlns="http://www.w3.org/2000/svg" xmlns:svg="http://www.w3.org/2000/svg" clip-rule="evenodd" stroke-linejoin="round" xml:space="preserve">
 <g class="layer">
  <title>Layer 1</title>
  <path d="m10,4l-6,0c-1.11,0 -2,0.89 -2,2l0,12c0,1.1 0.9,2 2,2l16,0c1.1,0 2,-0.9 2,-2l0,-10a2,2 0 0 0 -2,-2l-8,0l-2,-2z" fill="#00897b" id="svg_1" transform="matrix(1 0 0 1 0 0)"/>
  <g id="svg_2">
   <path d="m16.98,20.72a4.18,4.71 0 0 1 -4.18,-4.71c0,-3.14 4.18,-8.44 4.18,-8.44s4.18,5.3 4.18,8.44a4.18,4.71 0 0 1 -4.18,4.71z" fill="#29b6f6" id="svg_6" stroke-width="1.15"/>
  </g>
 </g>

</svg>