<?xml version="1.0"?>
<svg width="24" height="24" xmlns="http://www.w3.org/2000/svg" xmlns:svg="http://www.w3.org/2000/svg">
 <g class="layer">
  <title>Layer 1</title>
  <path d="m10,4l-6,0a2,2 0 0 0 -2,2l0,12c0,1.1 0.9,2 2,2l16,0c1.1,0 2,-0.9 2,-2l0,-10a2,2 0 0 0 -2,-2l-8,0l-2,-2z" fill="#ff4081" id="svg_1" transform="matrix(1 0 0 1 0 0)"/>
  <path d="m5.5,6.35l0.1,-2.43l1.9,0l0.08,2.35a0.15,0.15 0 0 1 -0.24,0.12l-0.73,-0.58l-0.87,0.66a0.15,0.15 0 0 1 -0.24,-0.12z" fill="#ffcdd2" id="svg_2"/>
  <polygon fill="#ffcdd2" id="svg_9" points="16.597149844963496,8.504735596477985 9.73092209895367,12.153570743124533 10.711811776955074,12.838269778522317 10.711811776955074,19.422484643757343 11.692701454956477,19.94237745553255 11.692701454956477,13.50379738967149 16.592613383616424,16.823020584881306 20.643197222861886,14.046435412800179 23.463377590973323,12.102621469692735 "/>
  <path d="m20.71,14.74l-4.11,2.85l-4.15,-2.85l-0.26,2.65l0.19,0.11c0.03,0.02 2.83,1.76 4,3.21l0.22,0.27l0.22,-0.27c1.17,-1.45 3.98,-3.19 4.01,-3.21l0.19,-0.11l-0.3,-2.65l-0.01,0z" fill="#ffcdd2" id="svg_8" transform="matrix(1 0 0 1 0 0)"/>
 </g>
</svg>