<?xml version="1.0"?>
<svg width="50" height="50" xmlns="http://www.w3.org/2000/svg" xmlns:svg="http://www.w3.org/2000/svg">
 <g class="layer">
  <title>Layer 1</title>
  <path d="m10.14,41.86l-1.24,-33.02a2.01,2.01 0 0 1 1.88,-2.08l28.08,-1.76a2.01,2.01 0 0 1 2.14,2.01l0,35.99a2.01,2.01 0 0 1 -2.1,2l-26.85,-1.2a2.01,2.01 0 0 1 -1.91,-1.93l0,-0.01z" fill="#FF4081" id="svg_1"/>
  <path d="m32.6,9.92l0.2,-4.62l3.85,-0.3l0.17,4.76a0.3,0.3 0 0 1 -0.49,0.24l-1.49,-1.17l-1.76,1.34a0.3,0.3 0 0 1 -0.48,-0.25z" fill="#ffcdd2" id="svg_2"/>
  <path d="m25.93,14.48a0.8,0.9 0 0 0 -0.67,0.01l-11.88,6.44a0.8,0.9 0 0 0 0.05,1.64l12.01,5.29a0.8,0.9 0 0 0 0.61,-0.01l9.21,-4.28l0.11,10.57a1.59,1.8 0 0 0 -1.57,1.82l0.04,3.61l4.78,-0.05l-0.04,-3.61a1.59,1.8 0 0 0 -1.61,-1.79l-0.12,-11.29l1.09,-0.52a0.8,0.9 0 0 0 0.01,-1.64l-12.02,-6.19z" fill="#ffcdd2" id="svg_6" transform="matrix(1 0 0 1 0 0)"/>
  <path d="m19.64,27.14a0.8,0.9 0 0 0 -1.05,0.61l-0.76,3.08a0.8,0.9 0 0 0 0.47,1.08l7.2,3.17a0.8,0.9 0 0 0 0.61,-0.01l7.13,-3.32a0.8,0.9 0 0 0 0.45,-1.09l-0.83,-3.06a0.8,0.9 0 0 0 -1.06,-0.58l-6.06,2.66l-6.11,-2.53l0.01,-0.01z" fill="#ffcdd2" id="svg_7" transform="matrix(1 0 0 1 0 0)"/>
 </g>
</svg>